<svg version="1.1" viewBox="0.0 0.0 192.0 336.0" fill="none" stroke="none" stroke-linecap="square" stroke-miterlimit="10" xmlns:xlink="http://www.w3.org/1999/xlink" xmlns="http://www.w3.org/2000/svg"><clipPath id="g26b370d8f1a_0_55.0"><path d="m0 0l192.0 0l0 336.0l-192.0 0l0 -336.0z" clip-rule="nonzero"/></clipPath><g clip-path="url(#g26b370d8f1a_0_55.0)"><path fill="#000000" fill-opacity="0.0" d="m0 0l192.0 0l0 336.0l-192.0 0z" fill-rule="evenodd"/><path fill="#6d3210" d="m49.932873 17.248892l0 296.8448l7.6237907 0l0 -289.2211l121.418205 0l0 289.2211l7.6237946 0l0 -296.8448l-136.66579 0z" fill-rule="evenodd"/><path fill="#7c3f17" d="m10.966669 5.3823547l46.424263 19.964863l0 288.0867l-46.424263 17.158508z" fill-rule="evenodd"/><path fill="#6d3210" d="m5.354098 5.3822174l5.823073 0l0 325.21008l-5.823073 0z" fill-rule="evenodd"/><path fill="#6d3210" d="m19.385527 143.85318l32.553078 2.0044556l0 -109.44566l-32.553078 -12.748661l0 120.189865zm29.907183 0l-27.341423 -1.6036072l0 -115.61956l27.341423 10.583759l0 106.639404z" fill-rule="evenodd"/><path fill="#6d3210" d="m19.385527 312.7924l32.472855 -10.824249l0 -109.445755l-32.553078 0.4009552l0 119.86905zm29.907099 -11.706268l-27.34134 8.980164l0 -115.29886l27.34134 -0.4008484l0 106.71954z" fill-rule="evenodd"/><path fill="#6d3210" d="m34.94045 77.94521c0 2.6459808 1.2027397 4.8107986 2.72612 4.8107986c1.5233765 0 2.72612 -2.1648178 2.72612 -4.8107986c0 -2.6459808 -1.2027435 -4.8107986 -2.72612 -4.8107986c-1.4432411 0.08013916 -2.72612 2.245041 -2.72612 4.8107986z" fill-rule="evenodd"/><path fill="#e2dbdb" d="m21.87115 156.36125l1.7639599 0.3207245c2.1649017 0.4008484 3.68828 1.6837311 3.68828 3.207199l0 24.294495c0 1.523468 -1.6035995 2.8864746 -3.8486404 3.207199l-1.7639599 0.24058533c-3.126978 0.4810791 -6.0936794 -1.1225281 -6.0936794 -3.207199l0 -24.93602c0.08013725 -2.0846863 3.1270618 -3.6882782 6.25404 -3.1269836z" fill-rule="evenodd"/><path fill="#1c2a3f" d="m21.710705 161.573l0.7216625 0.16035461c0.9621601 0.16035461 1.6035995 0.7215729 1.6035995 1.3630219l0 10.263031c0 0.641449 -0.64143944 1.2027435 -1.6035995 1.3631134l-0.7216625 0.08013916c-1.2828808 0.16035461 -2.5657597 -0.4810791 -2.5657597 -1.3630219l0 -10.503616c-0.08013725 -0.88194275 1.2027416 -1.5233917 2.5657597 -1.3630219z" fill-rule="evenodd"/><path fill="#1c2a3f" d="m21.87115 179.77382l0.32072067 0.08013916c0.40085793 0.0801239 0.64143944 0.32070923 0.64143944 0.56129456l0 4.1693573c0 0.24049377 -0.24058151 0.4810791 -0.64143944 0.56121826l-0.32072067 0.08023071c-0.5613022 0.08013916 -1.0423813 -0.16036987 -1.0423813 -0.5613098l0 -4.2494965c0 -0.48117065 0.4810791 -0.7216644 1.0423813 -0.6414337z" fill-rule="evenodd"/><path fill="#1c2a3f" d="m39.83147 166.22343l-16.67744 -0.24058533c-0.88202286 0 -1.6838226 0.72158813 -1.6838226 1.6837463l0 0.88201904c0 0.88201904 0.7215767 1.6035919 1.6035995 1.6838226l16.67744 0.24049377c0.88202286 0 1.6838226 -0.7216644 1.6838226 -1.6837311l0 -0.8820343c0 -0.8819275 -0.7216644 -1.6837311 -1.6035995 -1.6837311z" fill-rule="evenodd"/><path fill="#000000" d="m153.79378 302.2424l0 0c0 -2.1386719 1.7337341 -3.872406 3.872406 -3.872406l15.489166 0l0 0c1.0270233 0 2.0119781 0.4079895 2.738205 1.1341858c0.72621155 0.7262268 1.134201 1.7111816 1.134201 2.7382202l0 24.50235c0 2.1386719 -1.7337341 3.872406 -3.872406 3.872406l-15.489166 0c-2.1386719 0 -3.872406 -1.7337341 -3.872406 -3.872406z" fill-rule="evenodd"/><path fill="#000000" d="m15.737009 302.2424l0 0c0 -2.1386719 1.733736 -3.872406 3.872406 -3.872406l15.489164 0l0 0c1.0270271 0 2.0119896 0.4079895 2.738205 1.1341858c0.7262192 0.7262268 1.134201 1.7111816 1.134201 2.7382202l0 24.50235c0 2.1386719 -1.7337341 3.872406 -3.872406 3.872406l-15.489164 0c-2.13867 0 -3.872406 -1.7337341 -3.872406 -3.872406z" fill-rule="evenodd"/><path fill="#e83d3d" d="m20.548286 231.99818c-4.2007046 0 -10.688541 1.6009369 -12.579239 3.903244c-2.5920854 3.1485138 0.7395067 8.15715 2.7826805 9.102478c2.0507965 0.9148102 9.285765 1.2807465 9.285765 1.2807465l5.931301 -5.7481384c0 0 -0.34306908 -6.2665253 -2.0203018 -7.806473c-0.5641594 -0.50315857 -1.8144588 -0.7318573 -3.4002056 -0.7318573z" fill-rule="evenodd"/><path fill="#000000" d="m25.968794 240.53651l-5.931301 5.7481384l9.8423 2.2336884l0.9072304 -6.876404c-0.5412884 0 -4.8182297 -1.105423 -4.8182297 -1.105423z" fill-rule="evenodd"/><path fill="#b2322e" d="m20.548286 231.99818c-4.2007046 0 -10.688541 1.6009369 -12.579239 3.903244c-0.09910917 0.099105835 -0.18297052 0.22869873 -0.2820797 0.36592102c0.54891205 1.1282806 1.5476274 2.172699 2.8360462 2.9655457c1.8297071 1.0977936 3.9567423 1.6238098 6.030411 2.119339c1.8373318 0.44978333 3.689909 0.8919525 5.5348644 1.3417358c0.44217873 0.10673523 0.91485405 0.20584106 1.3875294 0.25920105l2.4929752 -2.4166565c0 0 -0.34306908 -6.2665253 -2.0203018 -7.806473c-0.5641594 -0.50315857 -1.8144588 -0.7318573 -3.4002056 -0.7318573z" fill-rule="evenodd"/><path fill="#f4d000" d="m7.4506307 240.8567l0 0c0.70901155 1.8830109 2.1270347 3.5449371 3.2248588 4.086212c1.4942617 -0.33543396 2.9961462 -0.6784973 4.4827833 -1.0139313c0.320199 -0.083862305 0.6556454 -0.16009521 0.8386164 -0.4269104c0.21346474 -0.25920105 0.0838604 -0.80810547 -0.22871399 -0.8919525c-2.729313 -0.7318573 -5.5119934 -1.3112488 -8.317545 -1.753418z" fill-rule="evenodd"/><path fill="#e83d3d" d="m171.49152 231.99818c-1.5781097 0 -2.8360443 0.22869873 -3.3925781 0.7318573c-1.6848602 1.5399475 -2.043167 7.806473 -2.043167 7.806473l5.9236755 5.7481384c0 0 7.242584 -0.36593628 9.285767 -1.2807465c2.0507965 -0.94532776 5.374756 -5.953964 2.775055 -9.102478c-1.8830719 -2.3023071 -8.355667 -3.903244 -12.548752 -3.903244z" fill-rule="evenodd"/><path fill="#000000" d="m166.05577 240.53651c0 0 -4.276947 1.105423 -4.833481 1.105423l0.9224701 6.876404l9.834686 -2.2336884l-5.9236755 -5.7481384z" fill-rule="evenodd"/><path fill="#b2322e" d="m171.49152 231.99818c-1.5781097 0 -2.8360443 0.22869873 -3.3925781 0.7318573c-1.6848602 1.5399475 -2.043167 7.806473 -2.043167 7.806473l2.5158386 2.4166565c0.44218445 -0.053359985 0.91485596 -0.15246582 1.3646545 -0.25920105c1.8602142 -0.44978333 3.6975403 -0.8919525 5.5348663 -1.3417358c2.0965424 -0.49552917 4.1930847 -1.0215454 6.030411 -2.119339c1.2808075 -0.7928467 2.28714 -1.837265 2.8284302 -2.9655457c-0.07623291 -0.13722229 -0.18296814 -0.2668152 -0.28970337 -0.36592102c-1.8830719 -2.3023071 -8.355667 -3.903244 -12.548752 -3.903244z" fill-rule="evenodd"/><path fill="#f4d000" d="m184.57393 240.8567c-2.8131714 0.4421692 -5.5653534 1.0215607 -8.317551 1.753418c-0.31256104 0.083847046 -0.41929626 0.63275146 -0.23632812 0.8919525c0.18296814 0.2668152 0.5489044 0.3430481 0.8691101 0.4269104c1.4866333 0.33543396 2.958023 0.6784973 4.452286 1.0139313l0.022872925 0c1.0825806 -0.541275 2.492981 -2.2032013 3.20961 -4.086212z" fill-rule="evenodd"/><path fill="#38354c" d="m115.540596 303.0951c0 0 -13.32637 0.2592163 -14.950233 0.2592163c-1.6619873 0 -26.934822 3.5449219 -26.934822 3.5449219l-12.518246 4.0633545l-5.062191 3.2781067l5.3290253 2.7292175l64.7259 0l10.25399 -2.7292175c0 0 -1.5400085 -7.6082764 -2.3557587 -7.8979797c-0.81573486 -0.2591858 -18.487663 -3.2476196 -18.487663 -3.2476196z" fill-rule="evenodd"/><path fill="#e83d3d" d="m97.02243 214.91388c3.6517944 0 12.800331 0.2134552 25.196594 2.1269684c0.8996048 0.13722229 1.7077255 0.63275146 2.264267 1.3341064c1.2045517 1.501831 3.2782211 4.3072968 4.482788 6.899292c1.8144531 3.804123 5.9236755 9.841949 -0.099121094 9.841949l-65.05372 0c-6.030407 0 -1.9135666 -6.0378265 -0.099105835 -9.841949c1.2274246 -2.5919952 3.301094 -5.397461 4.4827805 -6.899292c0.54891205 -0.701355 1.3646545 -1.1968842 2.2490158 -1.3341064c12.4038925 -1.9135132 21.55243 -2.1269684 25.204224 -2.1269684c0.25920868 0 0.48791504 0 0.68613434 0c0.20584106 0 0.43455505 0 0.68614197 0zm-1.257927 -11.503891c-6.9376373 0 -13.875275 0.34306335 -20.774796 1.0215607c-11.016365 1.0749054 -23.00095 2.3785248 -26.180065 3.1942444c-8.340416 2.1803284 -22.108965 40.259796 -22.108965 40.259796l-5.611103 3.644043c-1.8906975 1.2350159 -3.3620872 2.9655457 -4.2769413 5.0086365c-1.2579241 2.7825928 -2.8055515 6.716339 -2.8055515 9.102509c0 3.987091 -0.73188305 23.205963 0.70901203 34.092346c0.76237774 5.664276 1.9135695 9.369324 2.8284216 11.595367c0.7395077 1.753418 2.447235 2.912201 4.330309 2.912201l34.20028 0l7.608536 -1.8143921l65.06897 0l7.6314087 1.8143921l34.185028 0c1.8830719 0 3.5831757 -1.158783 4.3226776 -2.912201c0.91485596 -2.2260437 2.0660553 -5.9310913 2.8284302 -11.595367c1.4408875 -10.886383 0.716629 -30.105255 0.716629 -34.092346c0 -2.3861694 -1.5476227 -6.319916 -2.7826843 -9.102509c-0.9224701 -2.0430908 -2.4091034 -3.7736206 -4.276932 -5.0086365l-5.6110992 -3.644043c0 0 -13.799042 -38.079468 -22.139465 -40.259796c-3.2477264 -0.8385773 -16.497864 -2.203186 -28.299477 -3.308609c-6.510704 -0.60987854 -13.036659 -0.90719604 -19.562622 -0.90719604z" fill-rule="evenodd"/><path fill="#b2322e" d="m33.386734 243.53256c0.007621765 0 8.004967 7.6082764 13.433102 12.693146c5.428131 5.0620117 10.513191 9.041504 25.753132 9.41507c5.08506 0.12957764 9.483978 0.17532349 13.090027 0.17532349c5.931305 0 9.705078 -0.114349365 10.833397 -0.14483643c1.120697 0.03048706 4.8944626 0.14483643 10.8257675 0.14483643c3.6060486 0 8.004967 -0.04574585 13.0900345 -0.17532349c15.239937 -0.37356567 20.332619 -4.353058 25.76075 -9.41507c5.428131 -5.0848694 13.425476 -12.693146 13.425476 -12.693146l0 0l-63.102028 0.36593628l-63.109657 -0.36593628z" fill-rule="evenodd"/><path fill="#000000" d="m85.274185 214.91388c-0.16010284 0 -0.26683044 0.10673523 -0.26683044 0.26683044l0 5.4279327c0 0.12960815 0.1067276 0.23632812 0.26683044 0.23632812l22.314804 0c0.12960815 0 0.25920868 -0.10671997 0.25920868 -0.23632812l0 -5.4279327c0 -0.16009521 -0.12960052 -0.26683044 -0.25920868 -0.26683044z" fill-rule="evenodd"/><path fill="#000000" d="m63.2872 223.6733c-1.3036652 0 -2.4929771 0.86909485 -2.8512955 2.1574554l-2.157528 7.417694c-0.54891205 1.9134979 0.8691101 3.804123 2.8360443 3.804123l11.092602 0c1.9440613 0 3.3849564 -1.8601379 2.8589172 -3.750763l-2.06604 -7.448181c-0.37356567 -1.2807465 -1.5247574 -2.1803284 -2.8665466 -2.1803284z" fill-rule="evenodd"/><path fill="#000000" d="m55.449955 239.3625c-0.34307098 0 -0.6556473 0.18295288 -0.7928734 0.49552917l-1.4104004 2.9121857l26.51551 0l-1.7839661 -2.9884186c-0.16009521 -0.25920105 -0.44979858 -0.41929626 -0.7318802 -0.41929626z" fill-rule="evenodd"/><path fill="#000000" d="m124.300316 223.6733c-1.3189087 0 -2.4701004 0.86909485 -2.8360443 2.1574554l-2.1727753 7.417694c-0.5565338 1.9134979 0.86148834 3.804123 2.8284225 3.804123l11.092606 0c1.9669342 0 3.3849487 -1.8601379 2.8589172 -3.750763l-2.0736694 -7.448181c-0.36595154 -1.2807465 -1.5171356 -2.1803284 -2.8589172 -2.1803284z" fill-rule="evenodd"/><path fill="#000000" d="m116.45545 239.3625c-0.33544922 0 -0.6251526 0.18295288 -0.78525543 0.49552917l-1.4180222 2.9121857l26.51551 0l-1.7839661 -2.9884186c-0.15248108 -0.25920105 -0.44218445 -0.41929626 -0.7318878 -0.41929626z" fill-rule="evenodd"/><path fill="#000000" d="m61.663334 289.53287c-2.0203018 0 -3.095253 2.3861694 -1.7305946 3.880371l7.6847687 8.523102c0.41931152 0.5031433 1.0520859 0.7852173 1.7305984 0.7852173l56.88865 0c0.7090149 0 1.3341675 -0.31256104 1.7839661 -0.8385925l7.212097 -8.523102c1.2884216 -1.5170593 0.20584106 -3.8269958 -1.7839661 -3.8269958z" fill-rule="evenodd"/><path fill="#f4d000" d="m71.86395 281.3757c-0.16009521 0 -0.2820816 0.13723755 -0.2820816 0.28970337l0 11.092194c0 0.16009521 0.12198639 0.32019043 0.2820816 0.32019043l47.47328 0c0.18297577 0 0.32019806 -0.16009521 0.32019806 -0.32019043l0 -11.092194c0 -0.15246582 -0.13722229 -0.28970337 -0.32019806 -0.28970337z" fill-rule="evenodd"/><path fill="#f0f1f7" d="m95.60441 268.49957c-4.010109 0 -7.265465 2.3327942 -7.265465 5.222107c0 2.8817139 3.2553558 5.2373657 7.265465 5.2373657c4.010109 0 7.2959595 -2.3556519 7.2959595 -5.2373657c0 -2.8893127 -3.2858505 -5.222107 -7.2959595 -5.222107z" fill-rule="evenodd"/><path fill="#9ea5c5" d="m85.007355 215.36366c-4.0634766 0.31256104 -8.97319 0.8080902 -14.561424 1.677185c-0.88436127 0.13722229 -1.7001038 0.63275146 -2.2490158 1.3341064c-0.94535065 1.212143 -2.4396057 3.232376 -3.644165 5.29834l5.5806046 0c1.3417892 0 2.492981 0.8995819 2.8665466 2.1803284l2.06604 7.448181c0.16010284 0.6251221 0.13722992 1.2578735 -0.07623291 1.8143921l11.984581 0l11.771118 -14.271225l-13.471222 0c-0.16010284 0 -0.26683044 -0.10671997 -0.26683044 -0.23632812l0 -5.24498zm22.840843 0l0 5.24498c0 0.12960815 -0.12960052 0.23632812 -0.25920868 0.23632812l-5.08506 0l-11.809235 14.271225l6.5869446 0l15.895584 -19.257004c-1.9135666 -0.2058258 -3.7051544 -0.36592102 -5.3290253 -0.49552917zm8.767349 0.8919525l-15.636375 18.86058l18.358063 0c-0.20584106 -0.5793762 -0.22871399 -1.2121277 -0.04573822 -1.8677521l2.1727753 -7.417694c0.3659439 -1.2883606 1.5171356 -2.1574554 2.8360443 -2.1574554l3.8271408 0c-1.1816864 -2.0659637 -2.698822 -4.086197 -3.644165 -5.29834c-0.55654144 -0.701355 -1.3646622 -1.1968842 -2.264267 -1.3341064c-1.9593124 -0.28970337 -3.8271332 -0.5489044 -5.6034775 -0.78523254z" fill-rule="evenodd"/><path fill="#a1788e" d="m113.30682 207.83163l-5.8779297 7.082245l0.16009521 0c0.12960815 0 0.25920868 0.10673523 0.25920868 0.26683044l0 0.18295288c1.6238708 0.12960815 3.4154587 0.28970337 5.3290253 0.49552917l6.2438736 -7.554901c-2.1499023 -0.18296814 -4.200699 -0.33543396 -6.114273 -0.47265625zm-18.312317 -0.5717621c-5.0012054 0 -15.758354 0.23632812 -30.373146 1.9134979l-27.689571 33.383377c-1.2045555 -0.25920105 -2.0507965 -0.7318573 -2.5692139 -1.3646088l26.042835 -31.52324l0 0c-3.0418892 0.39642334 -6.2438736 0.8157196 -9.544971 1.3417358c-1.6009941 0.23632812 -3.0190163 1.0749207 -4.0177345 2.3327942c-2.0736656 2.6453705 -5.7178345 7.5854034 -7.8677406 12.144272c-1.9135704 4.0938263 -5.3747673 9.598007 -5.3747673 13.29541c0 2.3632965 1.418026 3.9871063 5.565361 3.9871063l14.081123 0l1.4104004 -2.9121857c0.1372261 -0.3125763 0.4498024 -0.49552917 0.7928734 -0.49552917l21.79639 0c0.2820816 0 0.571785 0.16009521 0.7318802 0.41929626l1.7839661 2.9884186l0.89198303 0l6.320114 -7.654022l-11.984581 0c-0.41931152 1.0977936 -1.4713898 1.9363708 -2.7826843 1.9363708l-11.092602 0c-1.9669342 0 -3.3849564 -1.890625 -2.8360443 -3.804123l2.157528 -7.417694c0.35831833 -1.2883606 1.5476303 -2.1574554 2.8512955 -2.1574554l1.2655487 0c1.2045593 -2.0659637 2.6988144 -4.086197 3.644165 -5.29834c0.54891205 -0.701355 1.3646545 -1.1968842 2.2490158 -1.3341064c5.588234 -0.86909485 10.497948 -1.364624 14.561424 -1.677185l0 -0.18295288c0 -0.16009521 0.1067276 -0.26683044 0.26683044 -0.26683044l18.380936 0l6.030411 -7.288086c-5.344269 -0.2896881 -9.43824 -0.36592102 -12.015076 -0.36592102zm-4.2998123 27.856323l-6.342987 7.654022l6.6098175 0l6.320114 -7.654022zm32.26384 -26.499344l-6.342987 7.6387634c1.7763443 0.23632812 3.644165 0.49552917 5.6034775 0.78523254c0.8996048 0.13722229 1.7077255 0.63275146 2.264267 1.3341064c0.945343 1.212143 2.4624786 3.232376 3.644165 5.29834l3.0113983 0c1.3417816 0 2.4929657 0.8995819 2.8589172 2.1803284l2.0736694 7.448181c0.5260315 1.890625 -0.89198303 3.750763 -2.8589172 3.750763l-11.092606 0c-1.3112946 0 -2.355751 -0.8385773 -2.7826843 -1.9363708l-18.358063 0l-6.350609 7.654022l19.623611 0l1.4180222 -2.9121857c0.16010284 -0.3125763 0.4498062 -0.49552917 0.78525543 -0.49552917l21.064507 0l14.317459 -17.335876c-2.0203094 -3.4382172 -4.459915 -6.693451 -6.007538 -8.683197c-0.99871826 -1.2578735 -2.416748 -2.096466 -3.9872437 -2.3327942c-6.922394 -1.0749054 -13.242508 -1.837265 -18.884102 -2.3937836z" fill-rule="evenodd"/><path fill="#7c7c8e" d="m84.94917 214.86366c-0.16280365 0 -0.27133942 0.10853577 -0.27133942 0.2713318l0 0.18606567l0 5.333618c0 0.13179016 0.10853577 0.24032593 0.27133942 0.24032593l13.698883 0l4.992691 -6.0313416zm22.529121 0l-5.008194 6.0313416l5.1709976 0c0.13179779 0 0.26358795 -0.10853577 0.26358795 -0.24032593l0 -5.333618l0 -0.18606567c0 -0.16279602 -0.13179016 -0.2713318 -0.26358795 -0.2713318z" fill-rule="evenodd"/><path fill="#7c7c8e" d="m63.217827 223.5277c-1.3320847 0 -2.5473213 0.888031 -2.9134521 2.2044983l-2.2045631 7.579376c-0.56087875 1.9552307 0.8880577 3.8870697 2.897873 3.8870697l11.334423 0c1.3398743 0 2.4148865 -0.85687256 2.843338 -1.9785767c0.21811676 -0.5686493 0.24149323 -1.2151947 0.07790375 -1.8539581l-2.111084 -7.61055c-0.38171387 -1.30867 -1.5579987 -2.2278595 -2.929039 -2.2278595z" fill-rule="evenodd"/><path fill="#7c7c8e" d="m55.16609 239.15092c-0.35188675 0 -0.6724968 0.19432068 -0.8132515 0.5262909l-1.4466438 3.0930328l27.196957 0l-1.8298111 -3.173996c-0.16421509 -0.27529907 -0.46136475 -0.44532776 -0.7506943 -0.44532776z" fill-rule="evenodd"/><path fill="#7c7c8e" d="m124.22438 223.42178c-1.3470001 0 -2.5227127 0.9017639 -2.8964539 2.2385864l-2.2190552 7.696579c-0.18686676 0.6802826 -0.16350555 1.3368225 0.046714783 1.9379883c0.43602753 1.1390686 1.5027313 2.0091858 2.841957 2.0091858l11.328873 0c2.0088348 0 3.4570618 -1.9300842 2.919815 -3.8918l-2.1178436 -7.7282257c-0.37373352 -1.3289032 -1.5494385 -2.2623138 -2.919815 -2.2623138z" fill-rule="evenodd"/><path fill="#a1788e" d="m153.33168 224.75584l-13.562714 16.337189l0.99871826 1.677185l12.7469635 0c4.147339 0 5.5653534 -1.6238098 5.5653534 -3.9871063c0 -3.697403 -3.438324 -9.201584 -5.3823853 -13.29541c-0.099105835 -0.23632812 -0.23634338 -0.50315857 -0.36593628 -0.7318573z" fill-rule="evenodd"/><path fill="#7c7c8e" d="m115.84109 239.31789c-0.3442688 0 -0.64159393 0.18774414 -0.8059006 0.50849915l-1.4553146 2.9884949l21.000374 0l2.8793488 -3.496994zm23.926674 1.7758789l-1.4005585 1.7211151l2.425537 0l-1.0249786 -1.7211151z" fill-rule="evenodd"/><path fill="#d5dadf" d="m98.74541 220.84497l-11.771118 14.271225l3.7204056 0l11.809235 -14.271225z" fill-rule="evenodd"/><path fill="#d3ada5" d="m109.68553 207.6258l-6.030411 7.288086l3.7737732 0l5.8779297 -7.082245c-1.2579193 -0.07623291 -2.4624786 -0.15246582 -3.621292 -0.20584106zm-22.711243 27.490402l-6.320114 7.654022l3.6975327 0l6.342987 -7.654022z" fill-rule="evenodd"/><path fill="#9d9d9d" d="m103.6677 214.86365l-5.230812 6.0313416l4.0043335 0l5.247055 -6.0313416z" fill-rule="evenodd"/><path fill="#d3ada5" d="m64.62136 209.17337c-1.3799019 0.16009521 -2.797924 0.31256104 -4.21595 0.49552917l-26.042835 31.52324c0.51841736 0.63275146 1.3646584 1.1054077 2.5692139 1.3646088l27.689571 -33.383377z" fill-rule="evenodd"/><path fill="#d3ada5" d="m151.83742 222.02663l-14.317459 17.335876l0.73187256 0c0.28970337 0 0.57940674 0.16009521 0.7318878 0.41929626l0.7852478 1.3112335l13.562714 -16.337189c-0.44981384 -0.92245483 -0.9453583 -1.837265 -1.4942627 -2.7292175z" fill-rule="evenodd"/><path fill="#9d9d9d" d="m137.41882 239.31784l-3.1220245 3.4973297l4.10614 0l1.5185852 -1.721283l-0.8738251 -1.3457336c-0.16967773 -0.26600647 -0.49205017 -0.4303131 -0.81443787 -0.4303131z" fill-rule="evenodd"/><path fill="#d5dadf" d="m113.17722 215.85919l-15.895584 19.257004l3.6975327 0l15.636375 -18.86058c-1.1816864 -0.1295929 -2.3404999 -0.2668152 -3.438324 -0.39642334z" fill-rule="evenodd"/><path fill="#d3ada5" d="m119.4211 208.30429l-6.2438736 7.554901c1.0978241 0.12960815 2.2566376 0.26683044 3.438324 0.39642334l6.342987 -7.6387634c-1.235054 -0.099105835 -2.4091187 -0.22869873 -3.5374374 -0.31256104zm-22.139458 26.811905l-6.320114 7.654022l3.667038 0l6.350609 -7.654022z" fill-rule="evenodd"/><path fill="#b2322e" d="m19.824026 283.5179c-1.5933704 0 -3.118126 1.2426453 -3.118126 3.1256409c0 7.9513245 0.8386154 19.622925 5.6415977 19.622925c0 0 22.84847 3.255249 27.20165 3.9871216c0.38118744 0.06097412 0.7852478 0.09146118 1.2121811 0.09146118c4.4141693 0 10.81052 -3.1637573 11.481415 -4.810425c0.7090111 -1.8067932 -10.54369 -4.1700745 -10.54369 -4.1700745l-29.717499 -16.947083c-0.63277245 -0.6174927 -1.4027748 -0.89956665 -2.1575298 -0.89956665z" fill-rule="evenodd"/><path fill="#f0f1f7" d="m24.733742 286.17853l2.5463428 9.148224c0.47267342 1.7610168 1.9364395 3.0951233 3.7280293 3.438202l18.617271 3.5144348l-5.08506 -6.2665405c-3.01902 -3.67453 -7.006256 -6.26651 -11.572899 -7.554901l-8.233685 -2.279419z" fill-rule="evenodd"/><path fill="#ffffff" d="m32.868317 289.53287c-2.2337685 0 -4.0406055 1.8067627 -4.0406055 4.0404663c0 2.2260742 1.8068371 4.0404663 4.0406055 4.0404663c2.226143 0 4.010109 -1.8143921 4.010109 -4.0404663c0 -2.2337036 -1.7839661 -4.0404663 -4.010109 -4.0404663z" fill-rule="evenodd"/><path fill="#ffffff" d="m40.469227 293.7258c-1.5476303 0 -2.8055534 1.2883606 -2.8055534 2.8359375c0 1.5475769 1.2579231 2.805481 2.8055534 2.805481c1.5476265 0 2.8360443 -1.257904 2.8360443 -2.805481c0 -1.5475769 -1.2884178 -2.8359375 -2.8360443 -2.8359375z" fill-rule="evenodd"/><path fill="#b2322e" d="m50.54024 270.43594l0 0c0 0.0076293945 -3.796646 4.0938416 -9.804184 4.65036l8.439526 5.710022l1.3646584 -10.360382z" fill-rule="evenodd"/><path fill="#f0f1f7" d="m25.625725 252.93999c-0.7928734 0 -1.5933704 0.06098938 -2.3862438 0.19058228c-1.9440651 0.31256104 -3.3315926 2.065979 -3.2019882 4.040451l0.6556454 8.889038c0.10673332 1.677185 1.3417854 3.0951538 2.9885216 3.438202l12.960426 2.7521057c0.26683426 0.06097412 0.5336647 0.09146118 0.80049896 0.09146118c0.57940674 0 1.1511917 -0.13720703 1.6924782 -0.40405273l9.125668 -4.5664673c1.2045555 -0.6022644 1.2884178 -2.2565613 0.12960434 -2.9655457l-14.683403 -9.148224c-2.4396095 -1.524704 -5.2375374 -2.3175507 -8.081207 -2.3175507z" fill-rule="evenodd"/><path fill="#ffffff" d="m37.396843 261.78326c-2.2261467 0 -4.010109 1.8143921 -4.010109 4.0404663c0 2.203186 1.7839622 4.0099792 4.010109 4.0099792c2.2413902 0 4.0482254 -1.8067932 4.0482254 -4.0099792c0 -2.2260742 -1.8068352 -4.0404663 -4.0482254 -4.0404663z" fill-rule="evenodd"/><path fill="#ffffff" d="m28.90395 257.27777c-2.6225815 0 -4.7496147 2.096466 -4.7496147 4.7189636c0 2.622467 2.1270332 4.7494507 4.7496147 4.7494507c2.5997086 0 4.71912 -2.1269836 4.71912 -4.7494507c0 -2.6224976 -2.1194115 -4.7189636 -4.71912 -4.7189636z" fill-rule="evenodd"/><path fill="#b2322e" d="m172.88667 283.5179c-0.7623749 0 -1.5323792 0.28207397 -2.1651459 0.89956665l-29.687012 16.947083c0 0 -11.283188 2.3632812 -10.543686 4.1700745c0.6403961 1.6466675 7.052002 4.810425 11.481415 4.810425c0.42692566 0 0.83099365 -0.03048706 1.2121735 -0.09146118c4.345566 -0.73187256 27.171158 -3.9871216 27.171158 -3.9871216c4.8029785 0 5.633972 -11.6716 5.6644745 -19.622925c0 -1.8829956 -1.5400085 -3.1256409 -3.133377 -3.1256409z" fill-rule="evenodd"/><path fill="#f0f1f7" d="m167.96933 286.17853l-8.233673 2.279419c-4.5666504 1.2883911 -8.553894 3.880371 -11.550034 7.554901l-5.1079254 6.2665405l18.617264 -3.5144348c1.7915955 -0.3430786 3.2553558 -1.677185 3.7509003 -3.438202l2.523468 -9.148224z" fill-rule="evenodd"/><path fill="#ffffff" d="m159.86525 289.53287c-2.2337646 0 -4.0406036 1.8067627 -4.0406036 4.0404663c0 2.2260742 1.806839 4.0404663 4.0406036 4.0404663c2.2032776 0 4.0101166 -1.8143921 4.0101166 -4.0404663c0 -2.2337036 -1.806839 -4.0404663 -4.0101166 -4.0404663z" fill-rule="evenodd"/><path fill="#ffffff" d="m152.22623 293.7258c-1.5476227 0 -2.8055573 1.2883606 -2.8055573 2.8359375c0 1.5475769 1.2579346 2.805481 2.8055573 2.805481c1.578125 0 2.8360443 -1.257904 2.8360443 -2.805481c0 -1.5475769 -1.2579193 -2.8359375 -2.8360443 -2.8359375z" fill-rule="evenodd"/><path fill="#b2322e" d="m142.18571 270.43594l1.3341522 10.360382l8.447159 -5.710022c-5.98468 -0.55651855 -9.781311 -4.6427307 -9.781311 -4.65036z" fill-rule="evenodd"/><path fill="#f0f1f7" d="m167.08498 252.93999c-2.8360443 0 -5.6492157 0.7928467 -8.088837 2.3175507l-14.683395 9.148224c-1.1283264 0.7089844 -1.0520782 2.3632812 0.12960815 2.9655457l9.156158 4.5664673c0.51841736 0.2668457 1.0978241 0.40405273 1.6848602 0.40405273c0.26683044 0 0.541275 -0.03048706 0.8081207 -0.09146118l12.922302 -2.7521057c1.6543579 -0.3430481 2.8894196 -1.7610168 3.0190125 -3.438202l0.632782 -8.889038c0.1295929 -1.974472 -1.2655487 -3.72789 -3.2019958 -4.040451c-0.7852478 -0.1295929 -1.5857391 -0.19058228 -2.3786163 -0.19058228z" fill-rule="evenodd"/><path fill="#ffffff" d="m155.29861 261.78326c-2.2337646 0 -4.0406036 1.8143921 -4.0406036 4.0404663c0 2.203186 1.806839 4.0099792 4.0406036 4.0099792c2.2337646 0 4.0406036 -1.8067932 4.0406036 -4.0099792c0 -2.2260742 -1.806839 -4.0404663 -4.0406036 -4.0404663z" fill-rule="evenodd"/><path fill="#ffffff" d="m163.82199 257.27777c-2.6225739 0 -4.741989 2.096466 -4.741989 4.7189636c0 2.622467 2.1194153 4.7494507 4.741989 4.7494507c2.5920868 0 4.7267456 -2.1269836 4.7267456 -4.7494507c0 -2.6224976 -2.1346588 -4.7189636 -4.7267456 -4.7189636z" fill-rule="evenodd"/></g></svg>