<svg version="1.1" viewBox="0.0 0.0 192.0 336.0" fill="none" stroke="none" stroke-linecap="square" stroke-miterlimit="10" xmlns:xlink="http://www.w3.org/1999/xlink" xmlns="http://www.w3.org/2000/svg"><clipPath id="p.0"><path d="m0 0l192.0 0l0 336.0l-192.0 0l0 -336.0z" clip-rule="nonzero"/></clipPath><g clip-path="url(#p.0)"><path fill="#000000" fill-opacity="0.0" d="m0 0l192.0 0l0 336.0l-192.0 0z" fill-rule="evenodd"/><path fill="#7c3f17" d="m34.01063 23.738287l123.97992 0l0 292.68427l-123.97992 0z" fill-rule="evenodd"/><path fill="#6d3210" d="m37.96312 316.42233l0 -288.31573l116.075165 0l0 288.31573l8.112671 0l0 -296.84467l-132.30072 0l0 296.84467z" fill-rule="evenodd"/><path fill="#6d3210" d="m131.15608 153.9588l-70.51889 0l0 -112.330795l70.51889 0l0 112.330795zm-68.43869 -2.0802002l66.56641 0l0 -108.378525l-66.56641 0l0 108.378525z" fill-rule="evenodd"/><path fill="#6d3210" d="m131.15608 306.22946l-70.51889 0l0 -112.33081l70.51889 0l0 112.33081zm-68.43869 -2.0802002l66.56641 0l0 -108.37854l-66.56641 0l0 108.37854z" fill-rule="evenodd"/><path fill="#e2dbdb" d="m145.71748 190.77824l-9.361008 0c-1.8722992 0 -3.3283234 -1.4560394 -3.3283234 -3.3283234l0 -23.71428c0 -1.8720703 1.4560242 -3.3283234 3.3283234 -3.3283234l9.361008 0c1.8720703 0 3.3280945 1.456253 3.3280945 3.3283234l0 23.71428c0 1.8722839 -1.4560242 3.3283234 -3.3280945 3.3283234z" fill-rule="evenodd"/><path fill="#1c2a3f" d="m142.38916 181.62558l0 5.2003937c0 0.41603088 -0.20791626 0.62394714 -0.624176 0.62394714l-1.2478943 0c-0.41604614 0 -0.624176 -0.20791626 -0.624176 -0.62394714l0 -5.2003937c0 -0.41625977 0.20812988 -0.624176 0.624176 -0.624176l1.2478943 0c0.20812988 0 0.624176 0.20791626 0.624176 0.624176z" fill-rule="evenodd"/><path fill="#1c2a3f" d="m141.14104 171.84853l-19.553879 0c-0.4160385 0 -0.6241684 -0.41603088 -0.6241684 -0.832077l0 -1.664154c0 -0.41604614 0.20812988 -0.8320923 0.6241684 -0.8320923l19.553879 0c0.41604614 0 0.62394714 0.41604614 0.62394714 0.8320923l0 1.664154c0 0.41604614 -0.41603088 0.832077 -0.62394714 0.832077z" fill-rule="evenodd"/><path fill="#1c2a3f" d="m143.0131 179.12912l-3.9522705 0c-0.832077 0 -1.664154 -0.832077 -1.664154 -1.664154l0 -12.06517c0 -0.832077 0.832077 -1.664154 1.664154 -1.664154l3.9522705 0c0.832077 0 1.6643829 0.832077 1.6643829 1.664154l0 12.06517c0 1.0402069 -0.8323059 1.664154 -1.6643829 1.664154z" fill-rule="evenodd"/><path fill="#6d3210" d="m101.61724 75.53538c0 4.9400635 -2.5145874 8.944748 -5.616432 8.944748c-3.102066 0 -5.616646 -4.0046844 -5.616646 -8.944748c0 -4.9402847 2.5145798 -8.944969 5.616646 -8.944969c3.1018448 0 5.616432 4.0046844 5.616432 8.944969z" fill-rule="evenodd"/></g></svg>