<svg version="1.1" viewBox="0.0 0.0 192.0 336.0" fill="none" stroke="none" stroke-linecap="square" stroke-miterlimit="10" xmlns:xlink="http://www.w3.org/1999/xlink" xmlns="http://www.w3.org/2000/svg"><clipPath id="g26b370d8f1a_0_13.0"><path d="m0 0l192.0 0l0 336.0l-192.0 0l0 -336.0z" clip-rule="nonzero"/></clipPath><g clip-path="url(#g26b370d8f1a_0_13.0)"><path fill="#000000" fill-opacity="0.0" d="m0 0l192.0 0l0 336.0l-192.0 0z" fill-rule="evenodd"/><path fill="#6d3210" d="m49.956493 17.260702l0 296.8448l7.6237946 0l0 -289.2211l121.4182 0l0 289.2211l7.6237946 0l0 -296.8448l-136.66579 0z" fill-rule="evenodd"/><path fill="#7c3f17" d="m10.990291 5.394166l46.424263 19.964863l0 288.0867l-46.424263 17.158508z" fill-rule="evenodd"/><path fill="#6d3210" d="m5.37772 5.394028l5.8230724 0l0 325.21005l-5.8230724 0z" fill-rule="evenodd"/><path fill="#6d3210" d="m19.40915 143.86499l32.55308 2.0044556l0 -109.44566l-32.55308 -12.748661l0 120.189865zm29.90718 0l-27.341421 -1.6036072l0 -115.61956l27.341421 10.583757l0 106.639404z" fill-rule="evenodd"/><path fill="#6d3210" d="m19.40915 312.8042l32.47286 -10.824249l0 -109.445755l-32.55308 0.4009552l0 119.86905zm29.907097 -11.706268l-27.341337 8.980164l0 -115.29886l27.341337 -0.4008484l0 106.71954z" fill-rule="evenodd"/><path fill="#6d3210" d="m34.96407 77.95702c0 2.6459808 1.2027435 4.8107986 2.72612 4.8107986c1.5233765 0 2.72612 -2.1648178 2.72612 -4.8107986c0 -2.6459808 -1.2027435 -4.8107986 -2.72612 -4.8107986c-1.4432411 0.08013916 -2.72612 2.245041 -2.72612 4.8107986z" fill-rule="evenodd"/><path fill="#e2dbdb" d="m21.894772 156.37306l1.7639599 0.3207245c2.1649017 0.4008484 3.68828 1.6837311 3.68828 3.207199l0 24.294495c0 1.523468 -1.6035995 2.8864746 -3.8486404 3.207199l-1.7639599 0.24058533c-3.126978 0.4810791 -6.0936804 -1.1225281 -6.0936804 -3.207199l0 -24.93602c0.08013821 -2.0846863 3.1270628 -3.6882782 6.2540407 -3.1269836z" fill-rule="evenodd"/><path fill="#1c2a3f" d="m21.734327 161.58481l0.7216625 0.16035461c0.9621582 0.16036987 1.6035995 0.72158813 1.6035995 1.3630219l0 10.263046c0 0.6414337 -0.64144135 1.2027283 -1.6035995 1.3630981l-0.7216625 0.08013916c-1.2828808 0.16035461 -2.5657597 -0.4810791 -2.5657597 -1.3630219l0 -10.503616c-0.08013916 -0.88194275 1.2027416 -1.5233917 2.5657597 -1.3630219z" fill-rule="evenodd"/><path fill="#1c2a3f" d="m21.894772 179.78563l0.32071877 0.08013916c0.40085793 0.0801239 0.64144135 0.32070923 0.64144135 0.56129456l0 4.1693573c0 0.24050903 -0.24058342 0.4810791 -0.64144135 0.56121826l-0.32071877 0.08023071c-0.5613022 0.08013916 -1.0423832 -0.16036987 -1.0423832 -0.5613098l0 -4.2494965c0 -0.48117065 0.481081 -0.7216644 1.0423832 -0.6414337z" fill-rule="evenodd"/><path fill="#1c2a3f" d="m39.85509 166.23524l-16.67744 -0.24058533c-0.88202095 0 -1.6838207 0.72158813 -1.6838207 1.6837463l0 0.88201904c0 0.88201904 0.7215767 1.6035919 1.6035995 1.6838226l16.677439 0.24049377c0.88202286 0 1.6838226 -0.7216644 1.6838226 -1.6837311l0 -0.88201904c0 -0.88194275 -0.7216606 -1.6837463 -1.6035995 -1.6837463z" fill-rule="evenodd"/><path fill="#d4beb0" d="m177.05374 225.38449l-13.303024 13.300446l-1.9334869 3.8695526l1.9334869 0.12084961l1.9360657 0l1.5709534 -0.12084961l1.5735321 -0.24168396l1.3292694 -0.36253357l1.3292847 -0.3625183l1.0901489 -0.48338318l0.9667511 -0.48336792l0.8459015 -0.6042175l0.7250519 -0.7276306l0.72506714 -0.7250519l0.4859314 -0.72506714l0.48338318 -0.7250519l0.3625183 -0.8459015l0.36253357 -0.8484802l0.24168396 -0.8459015l0.24168396 -1.691803l0.12084961 -1.6943665l-0.12084961 -1.5709534l-0.24168396 -1.3292847l-0.36253357 -2.1777344l-0.3625183 -0.72506714z" fill-rule="evenodd"/><path fill="#ac9b91" d="m74.87708 287.41553l-1.3292694 11.125275l9.7934265 29.745392l7.8599396 0l-3.386177 -39.54138l-12.93792 -1.3292847z" fill-rule="evenodd"/><path fill="#ac9b91" d="m161.81723 262.50644l-18.74353 25.875854l8.3433075 39.9039l10.400223 0l0 -65.779755z" fill-rule="evenodd"/><path fill="#000000" d="m81.89113 323.9333l1.4501114 4.3529053l7.8599396 0l-0.36252594 -4.3529053z" fill-rule="evenodd"/><path fill="#000000" d="m150.5711 323.9333l0.8459015 4.3529053l10.400223 0l0 -4.3529053z" fill-rule="evenodd"/><path fill="#d4beb0" d="m62.180855 205.55338l-1.9360619 1.8152161l-3.8695488 3.507019l-3.1419182 18.378433l1.2084312 3.0236511l1.0875854 2.9002228l1.0901604 3.1445007l0.96674347 3.1444855l0.96674347 3.507019l0.8459015 3.507019l0.8459015 3.62529l0.7276306 3.748703l1.3292732 7.3765717l0.96674347 7.497406l0.8459015 7.376587l0.48337555 7.1322937l0.48593903 6.8931885l0.24168396 6.65152l0.12084961 6.165558l0 5.684784l-0.12084961 9.310059l-0.24168396 6.0447083l-0.12084198 2.298584l7.3740005 0l5.443077 -33.37323l1.9334869 1.4501038l2.0569 1.3292847l2.0543365 1.2109985l2.0569 0.96673584l2.1751785 0.84591675l2.298584 0.7250366l2.1751785 0.6042175l2.2985916 0.606781l2.175171 0.36254883l2.2985916 0.2416687l2.175171 0.24169922l2.1777496 0.12084961l2.2960129 0.12081909l2.0569077 -0.12081909l4.2320786 -0.24169922l3.869545 -0.3625183l3.627861 -0.6042175l3.265335 -0.606781l2.9002304 -0.72506714l3.9904022 -1.0875854l1.4526825 -0.48336792l0.8459015 1.9334717l0.6042175 2.0569153l0.6042175 2.175171l0.3625183 2.298584l0.36253357 2.41687l0.24168396 2.4194336l0.24168396 4.5946045l-0.12083435 4.232086l-0.12084961 3.3861694l-0.24168396 3.2653198l11.366959 0l1.450119 -2.6611023l1.3318481 -2.7819824l1.2084198 -3.0210571l1.208435 -3.1445007l1.2109985 -3.2653198l1.0875854 -3.3861694l0.9667511 -3.5044556l0.96673584 -3.6278687l1.6943817 -7.2557373l1.450119 -7.497406l1.3292694 -7.497406l1.0901642 -7.2531433l0.8459015 -6.893219l0.7250519 -6.5306396l0.6042175 -5.923889l0.48336792 -5.0779877l0.48336792 -7.497406l0.12084961 -2.7819672l-4.715454 -0.12083435l-5.68219 -0.24168396l-7.6182556 -0.36253357l-9.189209 -0.48336792l-10.762749 -0.72506714l-12.092018 -0.96673584l-13.058762 -1.2110138l-3.265335 -0.3625183l-3.1419144 -0.48338318l-2.9028091 -0.48336792l-2.6611176 -0.7250519l-2.5377045 -0.8459015l-2.419426 -0.8484802l-2.1751785 -0.96673584l-2.0569 -1.0875854l-1.9334869 -1.0876007l-1.6943741 -1.0901489l-1.691803 -1.208435l-1.4526901 -1.208435l-1.329277 -1.3318329l-1.3292694 -1.3292847l-1.0875854 -1.2084198l-0.9693146 -1.3292847l-0.9667511 -1.3318329l-0.7250519 -1.208435l-1.450119 -2.540268l-0.9693146 -2.1751862l-0.7250595 -2.0569l-0.48337173 -1.691803l-0.24168777 -1.3292694l-0.24168396 -1.0901642z" fill-rule="evenodd"/><path fill="#ac9b91" d="m60.244793 207.36859l-3.8695488 3.507019l-3.1419182 18.378433l1.2084312 3.0236511l1.0875854 2.9002228l1.0901604 3.1445007l0.96674347 3.1444855l0.96674347 -2.5402832l0.8459015 -2.5376892l0.7250595 -2.5402832l0.48337173 -2.6611176l0.36510086 -2.658554l0.24168396 -2.540268l0.120845795 -2.5377045l0.12084198 -2.4194336l0 -2.298584l-0.12084198 -2.2960205l-0.36252975 -3.8695526l-0.36510086 -3.1444855l-0.36252975 -2.0543365z" fill-rule="evenodd"/><path fill="#000000" d="m65.08366 323.9333l-0.12084198 4.3529053l7.3740005 0l0.727623 -4.3529053z" fill-rule="evenodd"/><path fill="#000000" d="m134.48871 323.9333l-0.24168396 3.1419067l-0.12084961 1.2109985l11.366959 0l1.208435 -2.1777344l0.9693146 -2.175171z" fill-rule="evenodd"/><path fill="#eadccf" d="m104.38079 251.62286l-0.9667511 0.12083435l-0.96674347 0.24169922l-0.9693146 0.36509705l-0.96674347 0.48336792l-0.8459015 0.6042175l-0.96674347 0.6042175l-0.9693146 0.8459015l-1.812645 1.8152008l-1.691803 2.1752014l-1.6943741 2.298584l-1.691803 2.6585388l-1.5735321 2.781952l-1.450119 2.7819824l-1.4501114 3.0210571l-1.3318481 2.9028015l-2.4168625 5.68219l-1.936058 5.201416l1.5735321 0.96673584l1.570961 0.96673584l1.6943741 0.72506714l1.691803 0.72506714l1.691803 0.7276306l1.6943741 0.48336792l3.507019 0.96673584l3.504448 0.6042175l3.507019 0.3625183l3.386177 0.12084961l3.386177 0l3.2653275 -0.12084961l3.144493 -0.2416687l3.02108 -0.36254883l2.7819595 -0.48336792l2.5402756 -0.48336792l2.2960129 -0.6042175l3.627861 -0.84588623l-1.812645 -5.684784l-2.177742 -6.0447083l-1.208435 -3.1445007l-1.3318405 -3.1445007l-1.450119 -3.0236206l-1.4501114 -3.0210876l-1.4526901 -2.781952l-1.691803 -2.5402832l-1.570961 -2.41687l-1.6943741 -2.0569l-0.96674347 -0.8459015l-0.8459015 -0.8459015l-0.8484726 -0.7250519l-0.96674347 -0.6042175l-0.96674347 -0.48336792l-0.8459015 -0.36509705l-0.96674347 -0.24169922l-0.9693146 -0.12083435z" fill-rule="evenodd"/><path fill="#ac9b91" d="m11.7584505 196.96838l-0.12084293 0.7250519l0.12084293 1.8152161l0.12084293 1.208435l0.24168587 1.3292694l0.36252975 1.4526978l0.60421467 1.3292694l0.72505856 1.3292694l0.48337173 0.606781l0.6042156 0.6042175l0.6067867 0.6042175l0.6042156 0.48336792l0.8458996 0.36253357l0.7250595 0.36253357l0.96674347 0.36253357l0.9693165 0.12083435l1.0875874 0.12084961l1.2084293 0.12083435l1.3292732 -0.12083435l1.3318462 -0.12084961l1.4501152 -0.36253357l1.6943741 -0.3625183l-1.6943741 -2.5402832l-14.267192 -9.430893z" fill-rule="evenodd"/><path fill="#d4beb0" d="m78.746635 198.42107l-16.56578 7.132309l-2.2985916 1.6943817l1.5735321 0.8459015l1.4501152 0.6042175l1.4501152 0.48336792l1.3318481 0.36253357l1.2084274 0.24168396l1.0875931 0.12083435l1.0901566 0l0.96674347 -0.12083435l0.96674347 -0.24168396l0.8459015 -0.24169922l0.8459015 -0.3625183l0.7276306 -0.48338318l0.6042175 -0.48336792l0.6042099 -0.48336792l1.0875854 -1.2109985l0.8459015 -1.3292847l0.7276306 -1.3292694l0.48337555 -1.3292694l0.36252594 -1.2109985l0.48337555 -1.9334869l0.12084198 -0.72506714z" fill-rule="evenodd"/><path fill="#cc7f39" d="m33.03968 191.8904l-2.2985878 16.082413l6.772354 0l-4.4737663 -16.082413z" fill-rule="evenodd"/><path fill="#cc7f39" d="m50.69305 191.8904l-3.9903908 15.357361l6.5306664 0l-2.5402756 -15.357361z" fill-rule="evenodd"/><path fill="#ac9b91" d="m41.020466 245.57814l-12.092018 0.8459015l0.36252785 1.8152161l0.24168777 1.8126373l0.12084198 1.8126526l0 1.8152161l-0.24168587 1.8126526l-0.48337173 1.6943817l-0.48337173 1.691803l-0.7250595 1.6943665l1.2084312 -0.3651123l1.2084293 -0.48336792l1.2084312 -0.6042175l1.2110004 -0.72506714l1.0875893 -0.7250366l0.96674347 -0.84591675l1.0875893 -0.84846497l0.8484688 -0.9667511l0.8459015 -0.96673584l0.8459015 -1.0875854l0.7250595 -1.0901642l0.6042137 -1.208435l0.48594666 -1.2084198l0.36252594 -1.208435l0.36252975 -1.3318481l0.24168777 -1.3292694z" fill-rule="evenodd"/><path fill="#d4beb0" d="m62.180855 205.55338l-36.155212 0.8459015l-0.7250576 4.4763336l-0.6042156 4.8363037l-0.48337173 5.923874l-0.12084389 3.1444855l-0.12084198 3.265335l0 3.2627716l0.12084198 3.1444855l0.24168777 3.1444855l0.36252785 2.7819672l0.6042156 2.6585388l0.48337173 1.2110138l0.36252975 1.0875854l0.48337173 0.8459015l0.48337173 0.8459015l0.6067867 0.6042175l0.7250595 0.606781l0.7250576 0.48336792l0.8459015 0.48336792l0.8459015 0.36253357l0.8459015 0.12084961l0.8484707 0.12083435l0.96674347 0l2.6611214 -0.24168396l2.4168587 -0.6042175l2.2985916 -0.7250519l2.1751747 -0.8484802l2.0569 -1.0875854l1.812645 -1.3292694l1.6943741 -1.3318481l1.691803 -1.5709534l1.450119 -1.5709686l1.3318443 -1.8152161l1.2084312 -1.8126373l1.0875854 -1.9360657l0.96674347 -1.9334869l0.8484726 -2.0569l0.8459015 -1.9334869l0.7250595 -2.0569l0.6042137 -2.0543365l0.6042175 -1.9360657l0.8484726 -3.9878235l0.6042137 -3.6278534l0.36252975 -3.1444855l0.24168396 -2.7819672l0.120845795 -2.0543365l0 -1.8152161z" fill-rule="evenodd"/><path fill="#000000" d="m31.345308 239.89595l-0.24168587 0.12083435l-0.12084389 0.24168396l0.7250595 9.430908l0.8484707 0.12083435l-0.7250576 -9.551743l-0.123413086 -0.24168396l-0.36252975 -0.12083435z" fill-rule="evenodd"/><path fill="#f9b5c0" d="m31.224464 233.60696l-1.4501152 0.12083435l-1.2084312 0.36253357l-0.9693146 0.24168396l-0.7250595 0.48338318l0.12084389 0.84846497l0.12084198 0.72506714l0.24168587 0.96673584l0.48594475 0.9667511l0.36252785 0.48336792l0.48337364 0.48336792l0.48337173 0.36253357l0.6042156 0.2442627l0.8459015 0.24168396l0.8458996 0.12083435l0.8484745 0l0.7250557 -0.12083435l0.7250595 -0.12084961l0.6042137 -0.24168396l0.6042175 -0.36509705l0.48337173 -0.48338318l0.8484726 -0.8459015l0.6042137 -0.96673584l0.36252975 -0.7250519l0.24168777 -0.8484802l-1.2084312 -0.6042175l-1.2110023 -0.48336792l-0.96674347 -0.36253357l-1.0875893 -0.24168396l-0.96674347 -0.12084961l-0.8484726 -0.12083435z" fill-rule="evenodd"/><path fill="#000000" d="m31.103622 233.9695l1.4526863 0.12083435l1.450119 0.36253357l1.4501152 0.6042175l1.5735321 0.7276306l-0.48337555 1.0875854l-0.36252594 0.7250519l-0.60678864 0.72506714l-0.7250557 0.7250519l-0.9667473 0.48336792l-0.48337173 0.12084961l-0.6042137 0.2442627l-1.3318462 0l-0.7250576 -0.12084961l-0.6042156 -0.123413086l-0.48337173 -0.24168396l-0.48337173 -0.36253357l-0.7250576 -0.6042175l-0.48337364 -0.8459015l-0.36509895 -0.7250519l-0.24168777 -0.72506714l0 -1.0901489l0.48594475 -0.36253357l0.7250576 -0.24168396l1.2084312 -0.36253357l1.3292732 -0.12083435zm-0.9667454 -0.72506714l-0.8459015 0.12084961l-0.8458996 0.24168396l-0.6042156 0.24168396l-0.8484726 0.48336792l-0.36252975 0.12084961l-0.12084198 0.36253357l0 0.84846497l0.24168587 0.8459015l0.24168587 1.0875854l0.6042156 0.9667511l0.36509895 0.6042175l0.48337364 0.3625183l0.6042137 0.48594666l0.6042156 0.24168396l0.8459015 0.24168396l0.8459015 0.12084961l0.6067867 0.12084961l0.8459015 -0.12084961l0.7250557 -0.12084961l0.7250595 -0.24168396l0.6042175 -0.3625183l0.48337173 -0.3651123l0.48337173 -0.3625183l0.8484726 -0.9667511l0.6042137 -0.96673584l0.36252975 -0.72506714l0.24168777 -0.8459015l0 -0.2442627l-0.120845795 -0.24168396l-1.691803 -0.8459015l-1.6943741 -0.6042175l-1.6917992 -0.3625183l-1.5735321 -0.12084961z" fill-rule="evenodd"/><path fill="#000000" d="m44.890015 217.76624l-0.36252975 0.12084961l-0.36252975 0l-0.6067848 0.48336792l-0.36252975 0.48336792l-0.12084198 0.3651123l0 0.3625183l0 0.36253357l0.12084198 0.36253357l0.36252975 0.6042175l0.6067848 0.3625183l0.36252975 0.12084961l0.7250595 0l0.36252594 -0.12084961l0.48337555 -0.3625183l0.48337173 -0.6042175l0 -0.36253357l0.12084198 -0.36253357l-0.12084198 -0.3625183l0 -0.3651123l-0.48337173 -0.48336792l-0.48337555 -0.48336792l-0.36252594 0l-0.36252975 -0.12084961z" fill-rule="evenodd"/><path fill="#000000" d="m31.345308 217.16202l-0.36252975 0.12084961l-0.36252785 0.12084961l-0.6042156 0.3625183l-0.36252975 0.48338318l-0.12084198 0.3625183l0 0.36509705l0 0.36253357l0.12084198 0.36253357l0.36252975 0.6042175l0.6042156 0.3625183l0.36252785 0.12084961l0.7250595 0l0.36509895 -0.12084961l0.48337173 -0.3625183l0.48337173 -0.6042175l0 -0.36253357l0.120845795 -0.36253357l-0.120845795 -0.36509705l0 -0.3625183l-0.48337173 -0.48338318l-0.48337173 -0.3625183l-0.36509895 -0.12084961l-0.36252975 -0.12084961z" fill-rule="evenodd"/><path fill="#d9c9ba" d="m104.38079 251.62286l-0.9667511 0.12083435l-0.96674347 0.24169922l-0.9693146 0.36509705l-0.96674347 0.48336792l-0.8459015 0.6042175l-0.96674347 0.6042175l-0.9693146 0.8459015l-1.812645 1.8152008l-1.691803 2.1752014l-1.6943741 2.298584l-1.691803 2.6585388l-1.5735321 2.781952l-1.450119 2.7819824l-1.4501114 3.0210571l-1.3318481 2.9028015l-2.4168625 5.68219l-1.936058 5.201416l-2.175171 6.2864075l-0.7250595 2.4194336l1.9334869 1.4501038l2.0569 1.3292847l2.0543365 1.2109985l2.0569 0.96673584l2.1751785 0.84591675l2.298584 0.7250366l2.1751785 0.6042175l2.2985916 0.606781l2.175171 0.36254883l2.2985916 0.2416687l2.175171 0.24169922l2.1777496 0.12084961l2.2960129 0.12081909l2.0569077 -0.12081909l4.2320786 -0.24169922l3.869545 -0.3625183l3.627861 -0.6042175l3.265335 -0.606781l2.9002304 -0.72506714l3.9904022 -1.0875854l1.4526825 -0.48336792l-0.7276306 -2.7819824l-0.8459015 -3.0236206l-1.208435 -3.9878235l-1.812645 -5.684784l-2.177742 -6.0447083l-1.208435 -3.1445007l-1.3318405 -3.1445007l-1.450119 -3.0236206l-1.4501114 -3.0210876l-1.4526901 -2.781952l-1.691803 -2.5402832l-1.570961 -2.41687l-1.6943741 -2.0569l-0.96674347 -0.8459015l-0.8459015 -0.8459015l-0.8484726 -0.7250519l-0.96674347 -0.6042175l-0.96674347 -0.48336792l-0.8459015 -0.36509705l-0.96674347 -0.24169922l-0.9693146 -0.12083435z" fill-rule="evenodd"/></g></svg>